<svg width="246" height="30" viewBox="0 0 246 30" xmlns="http://www.w3.org/2000/svg" xmlns:xlink="http://www.w3.org/1999/xlink">
    <defs>
        <linearGradient x1="50%" y1=".285%" x2="50%" y2="100%" id="a">
            <stop stop-color="#FEFEFE" offset="0%"/>
            <stop stop-color="#EDEDED" offset="100%"/>
        </linearGradient>
        <linearGradient x1="50%" y1=".285%" x2="50%" y2="100%" id="b">
            <stop stop-color="#FEFEFE" offset="0%"/>
            <stop stop-color="#EDEDED" offset="100%"/>
        </linearGradient>
        <linearGradient x1="50%" y1=".285%" x2="50%" y2="100%" id="c">
            <stop stop-color="#FEFEFE" offset="0%"/>
            <stop stop-color="#EDEDED" offset="100%"/>
        </linearGradient>
        <linearGradient x1="50%" y1=".285%" x2="50%" y2="100%" id="g">
            <stop stop-color="#FEFEFE" offset="0%"/>
            <stop stop-color="#EDEDED" offset="100%"/>
        </linearGradient>
        <path id="d" d="M0 0h14v14H0z"/>
        <path id="f" d="M0 0h30v30H0z"/>
    </defs>
    <g fill="none" fill-rule="evenodd">
        <path d="M43.025 23.653c.366-.038.592-.1.68-.187a.45.45 0 0 0 .13-.332V12.332h-4.968c-.155 0-.27.054-.347.16-.077.105-.135.322-.173.65H38V8h.347c.038.328.096.545.173.65.077.106.192.159.347.159h14.266c.154 0 .27-.053.347-.159.077-.105.135-.322.174-.65H54v5.141h-.346c-.04-.327-.097-.544-.174-.65-.077-.105-.193-.159-.347-.159h-4.967v10.802a.45.45 0 0 0 .13.332c.087.086.313.15.679.187V24h-5.95v-.347z" fill="url(#a)"/>
        <path d="M62.756 23.045c0 .234.078.382.235.446.156.063.352.106.587.127V24H58v-.382c.235-.021.43-.064.587-.127.156-.064.235-.212.235-.446v-12.09c0-.233-.079-.382-.235-.446a2.076 2.076 0 0 0-.587-.127V10h5.578v.382a2.07 2.07 0 0 0-.587.127c-.157.064-.235.213-.235.445v4.01h6.488v-4.01c0-.232-.078-.381-.235-.445a2.073 2.073 0 0 0-.587-.127V10H74v.382c-.235.021-.43.063-.587.127-.157.064-.235.213-.235.445v12.091c0 .234.078.382.235.446.156.063.352.106.587.127V24h-5.578v-.382c.235-.021.43-.064.587-.127.157-.064.235-.212.235-.446V18.21h-6.488v4.836zM78.882 10.948c0-.231-.086-.379-.258-.443A2.44 2.44 0 0 0 78 10.38V10h5.475v.38c-.101.02-.213.062-.334.125-.122.064-.183.212-.183.443v7.68c0 .8.279 1.374.837 1.722.557.348 1.292.521 2.205.521s1.647-.173 2.205-.521c.558-.348.837-.921.837-1.722v-7.68c0-.231-.061-.379-.183-.443a1.313 1.313 0 0 0-.335-.126V10H94v.38a2.43 2.43 0 0 0-.624.125c-.172.064-.258.212-.258.443v6.953c0 .843-.122 1.638-.365 2.386a4.943 4.943 0 0 1-1.187 1.96c-.547.558-1.277.99-2.19 1.295-.912.305-2.038.458-3.376.458-1.339 0-2.464-.153-3.377-.458-.912-.305-1.642-.737-2.19-1.296a4.944 4.944 0 0 1-1.186-1.96 7.665 7.665 0 0 1-.365-2.385v-6.953zM113.18 23.045c0 .234.077.382.234.446.156.063.352.106.586.127V24h-5.421v-.382c.156 0 .337-.021.542-.064.205-.042.308-.158.308-.35 0-.19-.216-.546-.645-1.066-.43-.519-.982-1.161-1.655-1.925a993.353 993.353 0 0 0-2.272-2.561 56.365 56.365 0 0 1-2.49-3.007l-.059.064v8.336c0 .234.073.382.22.446.146.063.326.106.542.127V24h-5.011v-.382c.195-.021.366-.064.513-.127.146-.064.22-.212.22-.446v-12.09c0-.233-.08-.382-.235-.446a2.004 2.004 0 0 0-.557-.127V10h6.974v.382a1.516 1.516 0 0 0-.41.127c-.137.064-.205.213-.205.445 0 .043.161.26.484.653.322.393.737.886 1.245 1.48.508.593 1.074 1.251 1.7 1.972l1.875 2.164v-6.269c0-.232-.078-.381-.234-.445a2.069 2.069 0 0 0-.586-.127V10H114v.382c-.234.021-.43.063-.586.127-.157.064-.235.213-.235.445v12.091zM125.307 20.945c1.638 0 2.814-.29 3.528-.875.713-.583 1.07-1.606 1.07-3.07 0-1.464-.357-2.487-1.07-3.07-.714-.584-1.89-.875-3.528-.875h-2.268v7.89h2.268zm-6.488-9.99c0-.233-.079-.382-.236-.446a2.084 2.084 0 0 0-.583-.127V10h9.449c1.175 0 2.173.19 2.992.573.819.382 1.496.89 2.031 1.527.536.636.924 1.38 1.166 2.227.24.85.362 1.74.362 2.673s-.121 1.824-.362 2.673a5.934 5.934 0 0 1-1.166 2.227c-.535.636-1.212 1.145-2.031 1.527-.82.382-1.817.573-2.992.573H118v-.382c.231-.021.425-.064.583-.127.157-.064.236-.212.236-.446v-12.09z" fill="url(#b)"/>
        <path d="M148.9 20.908c.387 0 .637-.243.753-.729H150V24h-.29c-.096-.273-.197-.428-.303-.467-.106-.039-.275-.058-.506-.058H136v-.35c.212-.02.4-.059.564-.117.164-.058.246-.194.246-.408V11.516c0-.213-.082-.35-.246-.408a2.316 2.316 0 0 0-.564-.117v-.35h13.132a.617.617 0 0 0 .347-.116c.116-.078.174-.253.174-.525H150v3.908h-.347c0-.291-.058-.481-.174-.569a.573.573 0 0 0-.347-.13h-8.446v2.361h5.438a.573.573 0 0 0 .347-.13c.116-.088.174-.268.174-.54h.347v3.791h-.347c0-.272-.058-.452-.174-.54a.575.575 0 0 0-.347-.13h-5.438v2.887h8.215zM163.152 16.11c.6 0 1.073-.144 1.42-.43.347-.287.52-.717.52-1.289 0-.488-.145-.896-.435-1.225-.291-.328-.858-.493-1.701-.493h-3.795v3.436h3.991zm-7.534-5.155c0-.233-.066-.382-.196-.446a1.419 1.419 0 0 0-.422-.127V10h9.024c1.406 0 2.525.371 3.36 1.114.833.743 1.25 1.845 1.25 3.309 0 1.145-.295 2.052-.885 2.72-.59.668-1.335 1.193-2.235 1.575l2.502 4.264c.094.17.23.318.408.445.178.127.37.191.576.191V24h-5.679v-.382c.131 0 .276-.026.436-.08.16-.052.24-.163.24-.333 0-.106-.1-.371-.296-.796a34.5 34.5 0 0 0-.675-1.368c-.253-.488-.497-.955-.73-1.4a18.92 18.92 0 0 1-.437-.86h-2.698v4.264c0 .234.07.382.21.446.141.063.314.106.52.127V24h-4.835v-.382c.112-.021.234-.064.366-.127.13-.064.196-.212.196-.446v-12.09z" fill="url(#a)"/>
        <path d="M188.622 13.772c.019-.06.033-.124.043-.194.01-.07.015-.155.015-.255 0-.16-.131-.319-.393-.478-.263-.16-.612-.304-1.049-.434a11.895 11.895 0 0 0-3.277-.463c-.582 0-1.194.07-1.835.209-.64.14-1.228.369-1.762.688a3.943 3.943 0 0 0-1.31 1.27c-.34.53-.51 1.173-.51 1.93 0 .758.17 1.4.51 1.93.339.527.776.951 1.31 1.27a5.81 5.81 0 0 0 1.762.688c.64.14 1.253.21 1.835.21.252 0 .65-.046 1.194-.136.544-.09 1.088-.214 1.632-.373a9.663 9.663 0 0 0 1.441-.539c.418-.199.626-.408.626-.627 0-.1-.019-.18-.058-.24-.039-.06-.077-.13-.116-.21l.32-.209 3 4.696-.35.21c-.039-.1-.092-.165-.16-.195a.612.612 0 0 0-.247-.045c-.136 0-.408.085-.816.254-.407.17-.937.35-1.587.539-.65.19-1.413.358-2.287.508a17.55 17.55 0 0 1-2.941.224c-1.166 0-2.32-.154-3.467-.463a9.246 9.246 0 0 1-3.087-1.466 7.766 7.766 0 0 1-2.213-2.512c-.564-1.006-.845-2.178-.845-3.514 0-1.336.28-2.507.845-3.514a7.777 7.777 0 0 1 2.213-2.513 9.976 9.976 0 0 1 3.087-1.51c1.146-.339 2.301-.508 3.467-.508 1.164 0 2.17.065 3.014.194.845.13 1.559.274 2.141.434.563.16 1 .294 1.31.404.311.11.544.164.7.164.175 0 .32-.08.437-.24l.32.09-2.621 4.935-.291-.209z" fill="url(#c)"/>
        <path d="M202 13.305c-.56 0-1.089.09-1.588.267-.5.177-.939.427-1.318.751a3.36 3.36 0 0 0-.884 1.174c-.21.46-.315.981-.315 1.566 0 .584.105 1.106.315 1.565.21.46.504.85.884 1.174.38.324.819.574 1.318.752a4.713 4.713 0 0 0 1.588.266 4.68 4.68 0 0 0 1.603-.266c.49-.178.924-.428 1.304-.752.379-.324.674-.715.883-1.174.21-.459.315-.981.315-1.565 0-.585-.105-1.106-.315-1.566-.21-.459-.504-.85-.883-1.174a4.195 4.195 0 0 0-1.304-.751 4.68 4.68 0 0 0-1.603-.267M202 10c.939 0 1.883.135 2.831.405a7.93 7.93 0 0 1 2.577 1.263 6.566 6.566 0 0 1 1.873 2.199c.48.894.719 1.953.719 3.18 0 1.247-.24 2.313-.719 3.196a6.444 6.444 0 0 1-1.873 2.167 7.62 7.62 0 0 1-2.577 1.216c-.948.25-1.892.374-2.831.374-.94 0-1.883-.125-2.831-.374a7.61 7.61 0 0 1-2.577-1.216 6.432 6.432 0 0 1-1.873-2.167c-.48-.883-.719-1.949-.719-3.196 0-1.227.24-2.286.72-3.18a6.554 6.554 0 0 1 1.872-2.199 7.92 7.92 0 0 1 2.577-1.263c.948-.27 1.892-.405 2.831-.405" fill="url(#b)"/>
        <path d="M222.153 16.11c.6 0 1.072-.144 1.42-.43.346-.287.52-.717.52-1.289 0-.488-.146-.896-.436-1.225-.291-.328-.857-.493-1.701-.493h-3.796v3.436h3.993zm-7.535-5.155c0-.233-.065-.382-.196-.446a1.414 1.414 0 0 0-.422-.127V10h9.024c1.406 0 2.526.371 3.36 1.114.833.743 1.251 1.845 1.251 3.309 0 1.145-.295 2.052-.886 2.72-.59.668-1.335 1.193-2.235 1.575l2.502 4.264c.094.17.23.318.408.445.178.127.37.191.576.191V24h-5.679v-.382c.131 0 .277-.026.436-.08.16-.052.24-.163.24-.333 0-.106-.099-.371-.296-.796a34.5 34.5 0 0 0-.675-1.368c-.253-.488-.497-.955-.731-1.4-.234-.445-.38-.732-.436-.86h-2.699v4.264c0 .234.071.382.211.446.141.063.314.106.52.127V24h-4.835v-.382c.112-.021.234-.064.366-.127.13-.064.196-.212.196-.446v-12.09z" fill="url(#a)"/>
        <g transform="translate(232 10)">
            <mask id="e" fill="#fff">
                <use xlink:href="#d"/>
            </mask>
            <path d="M12.9 10.908c.386 0 .637-.243.753-.729H14V14h-.29c-.096-.273-.197-.428-.303-.467-.106-.039-.275-.058-.506-.058H0v-.35c.212-.02.4-.059.564-.117.164-.058.246-.194.246-.408V1.516c0-.213-.082-.35-.246-.408A2.316 2.316 0 0 0 0 .99v-.35h13.132a.618.618 0 0 0 .347-.116c.116-.078.174-.253.174-.525H14v3.908h-.347c0-.291-.058-.481-.174-.569a.574.574 0 0 0-.347-.13H4.686V5.57h5.438a.573.573 0 0 0 .347-.13c.116-.088.173-.268.173-.54h.348V8.69h-.348c0-.272-.057-.452-.173-.54a.575.575 0 0 0-.347-.13H4.686v2.887h8.215z" fill="#FFF" mask="url(#e)"/>
        </g>
        <g>
            <mask id="h" fill="#fff">
                <use xlink:href="#f"/>
            </mask>
            <path d="M28.838 14.999c0-7.63-6.208-13.837-13.838-13.837-7.63 0-13.84 6.207-13.84 13.837S7.37 28.839 15 28.839s13.838-6.21 13.838-13.84M15 0c8.271 0 15 6.729 15 14.999C30 23.27 23.271 30 15 30S0 23.27 0 14.999C0 6.729 6.729 0 15 0" fill="url(#g)" mask="url(#h)"/>
        </g>
        <path d="m8.554 11.998 4.586-3.015-4.918-.014-1.139 3.8 3.275.02-1.804-.79zm5.724 10.896 1.712-6.732-5.086 4.08-.824 2.652h4.198zm-4.29-3.763 7.645-5.968-3.377-1.461.208-.345 2.014-3.255.017-.03-5.792 3.819 3.032 1.63-3.746 5.61zM21.71 12.79l1.207-3.82h-5.364l-1.481 2.49 3.376 1.313 2.262.017zM24 7.965l-1.696 5.671h-4.263l-.66.516L15.074 24h-6.42l1.199-3.677.09-.358-2.626 2.053 3.637-5.445.855-2.937H6l1.681-5.671h7.84L18.502 6l-1.215 1.965H24z" fill="url(#a)"/>
    </g>
</svg>
